<?xml version="1.0" encoding="utf-8"?>
<!-- Generator: Adobe Illustrator 15.1.0, SVG Export Plug-In . SVG Version: 6.00 Build 0)  -->
<!DOCTYPE svg PUBLIC "-//W3C//DTD SVG 1.1//EN" "http://www.w3.org/Graphics/SVG/1.1/DTD/svg11.dtd">
<svg version="1.1" xmlns="http://www.w3.org/2000/svg" xmlns:xlink="http://www.w3.org/1999/xlink" x="0px" y="0px" width="432px"
	 height="432px" viewBox="0 0 432 432" enable-background="new 0 0 432 432" xml:space="preserve">
<g id="Layer_1">
</g>
<g id="Layer_2">
	<g>
		<g>
			<g>
				<g>
					<path d="M314.958,51.314c-2.429-1.967-3.671-2.923-6.204-4.776c-1.62,1.008-2.424,1.52-4.018,2.557
						c-0.485-0.347-0.729-0.52-1.219-0.862c5.704-3.7,8.648-5.456,14.696-8.771c0.472,0.36,0.706,0.541,1.175,0.905
						c-1.661,6.693-2.614,9.983-4.749,16.43c-0.449-0.379-0.673-0.567-1.126-0.943C314.109,54.048,314.398,53.14,314.958,51.314z
						 M309.785,45.899c2.248,1.655,3.351,2.506,5.518,4.25c1.069-3.546,1.572-5.337,2.504-8.953
						C314.55,43.021,312.944,43.962,309.785,45.899z"/>
					<path d="M329.12,55.561c-0.188-0.25-0.41-0.497-0.665-0.738c-0.663-0.626-1.385-0.987-2.153-1.081
						c-0.768-0.094-1.54,0.09-2.312,0.55c-2.157,2.386-3.235,3.579-5.393,5.964c-0.404-0.366-0.607-0.547-1.015-0.91
						c3.111-3.501,4.666-5.253,7.776-8.755c0.431,0.383,0.646,0.576,1.073,0.962c-0.491,0.559-0.735,0.838-1.228,1.397
						c1.5-0.511,2.896-0.174,4.149,1.011c0.298,0.282,0.5,0.54,0.606,0.771C329.624,55.064,329.457,55.23,329.12,55.561z"/>
					<path d="M328.242,68.49c0.654,0.696,1.383,1.111,2.195,1.247c0.813,0.137,1.537-0.039,2.174-0.539
						c0.358,0.399,0.537,0.599,0.893,1.001c-0.561,0.444-1.208,0.696-1.938,0.761s-1.457-0.059-2.187-0.366
						s-1.373-0.758-1.935-1.355c-1.107-1.178-1.617-2.464-1.528-3.895c0.089-1.429,0.753-2.792,2.024-4.071
						c0.109-0.11,0.166-0.166,0.275-0.276c0.813-0.818,1.692-1.386,2.639-1.692c0.947-0.307,1.893-0.328,2.833-0.055
						s1.81,0.828,2.595,1.663c0.998,1.062,1.527,2.209,1.587,3.418s-0.37,2.248-1.263,3.122c-0.364-0.412-0.547-0.618-0.915-1.027
						c0.639-0.66,0.943-1.428,0.905-2.306c-0.039-0.878-0.411-1.697-1.118-2.449c-0.902-0.96-1.918-1.407-3.027-1.335
						c-1.108,0.072-2.202,0.654-3.284,1.724c-0.107,0.106-0.164,0.159-0.271,0.266c-1.063,1.05-1.642,2.118-1.759,3.196
						C327.021,66.601,327.389,67.582,328.242,68.49z"/>
					<path d="M339.227,83.001c-0.325-0.438-0.487-0.656-0.816-1.092c5.307-4.005,7.96-6.007,13.267-10.014
						c0.364,0.482,0.544,0.724,0.903,1.208C347.238,77.063,344.568,79.042,339.227,83.001z"/>
					<path d="M344.844,91.504c-0.564-0.876-0.88-1.797-0.943-2.774c-0.064-0.977,0.127-1.909,0.578-2.8s1.119-1.651,2.014-2.273
						c0.152-0.106,0.229-0.16,0.382-0.266c0.924-0.643,1.892-1.026,2.909-1.138c1.018-0.113,1.99,0.05,2.906,0.49
						s1.66,1.097,2.217,1.959c0.872,1.349,1.135,2.69,0.797,3.994c-0.339,1.303-1.238,2.382-2.679,3.25
						c-0.248,0.15-0.372,0.225-0.62,0.375c-1.878-3.116-2.861-4.647-4.912-7.652c-0.082,0.056-0.124,0.085-0.206,0.141
						c-1.097,0.749-1.775,1.71-2.058,2.875c-0.282,1.166-0.094,2.248,0.566,3.273c0.396,0.614,0.846,1.092,1.357,1.434
						c0.512,0.342,1.123,0.563,1.838,0.666c-0.029,0.424-0.046,0.635-0.078,1.059C347.209,93.965,345.872,93.1,344.844,91.504z
						 M353.978,85.3c-0.594-0.918-1.401-1.49-2.409-1.711c-1.007-0.22-2.054-0.051-3.139,0.498c1.735,2.543,2.573,3.835,4.187,6.458
						c0.048-0.029,0.07-0.044,0.118-0.073c0.938-0.624,1.535-1.406,1.777-2.354C354.754,87.17,354.575,86.225,353.978,85.3z"/>
					<path d="M360.554,94.547c-0.69,0.405-1.035,0.606-1.727,1.011c0.868,0.081,1.646,0.356,2.331,0.828s1.238,1.108,1.652,1.904
						c0.656,1.26,0.814,2.368,0.488,3.3s-1.127,1.708-2.394,2.337c-2.761,1.35-4.143,2.024-6.904,3.374
						c-0.238-0.487-0.358-0.73-0.601-1.214c2.753-1.375,4.129-2.062,6.882-3.438c0.933-0.475,1.521-1.045,1.759-1.712
						s0.108-1.483-0.392-2.439c-0.417-0.797-1.016-1.384-1.784-1.751s-1.606-0.486-2.509-0.358c-2.807,1.554-4.21,2.331-7.017,3.884
						c-0.262-0.473-0.394-0.709-0.66-1.181c4.078-2.304,6.116-3.456,10.193-5.761C360.147,93.815,360.283,94.06,360.554,94.547z"/>
					<path d="M361.443,109.12c1.67-0.755,3.179-0.947,4.527-0.546c1.349,0.4,2.342,1.338,2.948,2.798
						c0.694,1.672,0.606,3.194-0.241,4.521c0.641-0.217,0.963-0.325,1.604-0.541c0.198,0.513,0.296,0.77,0.49,1.285
						c-4.294,1.618-6.439,2.427-10.734,4.045c-1.411,0.532-2.686,0.537-3.82,0.041c-1.137-0.496-1.972-1.421-2.535-2.784
						c-0.318-0.771-0.459-1.571-0.426-2.411c0.033-0.841,0.234-1.586,0.608-2.235c0.407,0.147,0.61,0.221,1.018,0.372
						c-0.646,1.327-0.722,2.573-0.224,3.775c0.427,1.03,1.045,1.718,1.869,2.068c0.825,0.351,1.768,0.338,2.832-0.048
						c0.549-0.212,0.825-0.318,1.374-0.53c-1.396-0.409-2.396-1.377-3.037-2.92c-0.548-1.319-0.506-2.582,0.132-3.818
						c0.637-1.236,1.781-2.243,3.458-3C361.35,109.163,361.38,109.148,361.443,109.12z M361.82,110.519
						c-1.367,0.603-2.313,1.374-2.85,2.305c-0.536,0.93-0.582,1.919-0.141,2.987c0.646,1.563,1.746,2.414,3.337,2.564
						c2.03-0.786,3.047-1.18,5.077-1.966c0.578-0.586,0.933-1.249,1.063-1.989c0.129-0.741,0.021-1.534-0.324-2.368
						c-0.47-1.136-1.241-1.848-2.295-2.129C364.633,109.641,363.345,109.846,361.82,110.519z"/>
					<path d="M376.271,123.285c-1.142,0.369-1.711,0.553-2.853,0.922c0.34,1.051,0.505,1.577,0.827,2.635
						c-0.406,0.124-0.608,0.185-1.015,0.308c-0.32-1.051-0.485-1.574-0.822-2.618c-2.974,0.96-4.459,1.441-7.433,2.401
						c-0.619,0.2-1.042,0.469-1.268,0.804c-0.227,0.335-0.251,0.781-0.077,1.339c0.068,0.22,0.214,0.566,0.433,1.039
						c-0.396,0.144-0.592,0.217-0.988,0.361c-0.22-0.309-0.424-0.758-0.608-1.348c-0.281-0.896-0.246-1.626,0.11-2.194
						s1.008-1.013,1.96-1.33c2.966-0.987,4.449-1.481,7.415-2.468c-0.308-0.924-0.467-1.385-0.787-2.304
						c0.4-0.14,0.601-0.21,1.001-0.35c0.323,0.925,0.481,1.39,0.791,2.32c1.138-0.378,1.708-0.569,2.846-0.948
						C375.993,122.426,376.085,122.712,376.271,123.285z"/>
					<path d="M374.087,133.535c0.799,0.286,1.478,0.751,2.033,1.393s0.94,1.405,1.147,2.283c0.33,1.403,0.214,2.532-0.33,3.365
						s-1.511,1.392-2.894,1.689c-3.009,0.628-4.514,0.942-7.522,1.57c-0.112-0.539-0.169-0.809-0.286-1.346
						c3.007-0.656,4.512-0.981,7.519-1.637c1.021-0.23,1.729-0.644,2.122-1.239s0.469-1.428,0.216-2.493
						c-0.211-0.888-0.651-1.614-1.309-2.168s-1.441-0.881-2.349-0.983c-3.103,0.816-4.655,1.225-7.758,2.042
						c-0.14-0.53-0.21-0.795-0.354-1.324c6.415-1.75,9.623-2.624,16.038-4.372c0.159,0.585,0.238,0.878,0.393,1.464
						C378.087,132.482,376.753,132.833,374.087,133.535z"/>
				</g>
			</g>
			<g>
				
					<ellipse fill="#FFFFFF" stroke="#000000" stroke-width="5" stroke-miterlimit="10" cx="203.249" cy="179.594" rx="156.043" ry="156.177"/>
				<line fill="none" stroke="#FF6400" stroke-width="3" stroke-miterlimit="10" x1="357" y1="179.5" x2="204" y2="179.5"/>
				
					<line fill="none" stroke="#FF6400" stroke-width="3" stroke-miterlimit="10" x1="203.249" y1="180.248" x2="271.819" y2="42.333"/>
				<g>
					<path fill="none" stroke="#5E249F" stroke-width="2" stroke-miterlimit="10" d="M247.337,178.854
						c6.735-33.121-21.498-44.806-21.498-44.806"/>
					<polyline fill="none" stroke="#5E249F" stroke-width="2" stroke-miterlimit="10" points="253.563,167.915 247.337,178.854 
						243.414,166.348 					"/>
					<polyline fill="none" stroke="#5E249F" stroke-width="2" stroke-miterlimit="10" points="234.277,144.742 226.701,134.692 
						239.735,136.045 					"/>
				</g>
				
					<text transform="matrix(1 0 0 1 281.7168 208.4297)" fill="#2C5BC4" font-family="'Roboto-Regular'" font-size="39.8955" letter-spacing="2">r</text>
				<g>
					
						<ellipse fill="none" stroke="#000000" stroke-width="0.5" stroke-miterlimit="10" cx="254.771" cy="145.088" rx="3.307" ry="7.195"/>
					
						<line fill="none" stroke="#000000" stroke-width="0.25" stroke-miterlimit="10" x1="258.077" y1="145.885" x2="251.172" y2="145.863"/>
				</g>
			</g>
		</g>
		<g>
			
				<ellipse fill="none" stroke="#000000" stroke-width="0.5" stroke-miterlimit="10" cx="318.415" cy="372.222" rx="3.598" ry="7.826"/>
			
				<line fill="none" stroke="#000000" stroke-width="0.25" stroke-miterlimit="10" x1="322.013" y1="373.088" x2="314.499" y2="373.064"/>
		</g>
		<text transform="matrix(1 0 0 1 87.293 397.9336)"><tspan x="0" y="0" fill="#FF6400" font-family="'Roboto-Thin'" font-size="28.9378">Arc length</tspan><tspan x="125.812" y="0" font-family="'Roboto-Thin'" font-size="28.9378"> = </tspan><tspan x="155.795" y="0" font-family="'Roboto-Light'" font-size="28.9378">2</tspan></text>
		<text transform="matrix(1 0 0 1 282.6143 397.7402)" font-family="'Roboto-Light'" font-size="30">r</text>
		<text transform="matrix(1 0 0 1 293.6768 392.5059)" font-family="'Roboto-Thin'" font-size="33.7608">(</text>
		<text transform="matrix(-1 0 0 -1 342.707 373.6152)" font-family="'Roboto-Thin'" font-size="33.7608">(</text>
		
			<line fill="none" stroke="#191919" stroke-width="0.25" stroke-miterlimit="10" x1="299.503" y1="383.465" x2="337.484" y2="383.665"/>
		<text transform="matrix(1 0 0 1 306.5371 397.7402)" font-family="'Roboto-Light'" font-size="14.4689">360</text>
		<g>
			<text transform="matrix(1 0 0 1 348.4844 428.0273)" font-family="'ArialMT'" font-size="10.9902">w3resource.com</text>
			<g>
				<path fill-rule="evenodd" clip-rule="evenodd" fill="#FFFFFF" d="M342.211,419.9c-2.668,0.409-4.207,1.948-4.616,4.616
					c0-1.539,0-3.077,0-4.616C339.134,419.9,340.673,419.9,342.211,419.9z"/>
				<path fill-rule="evenodd" clip-rule="evenodd" d="M342.211,419.9c0.289,0,0.578,0,0.868,0c2.668,0.409,4.207,1.948,4.616,4.616
					c0,0.289,0,0.578,0,0.868c-0.409,2.668-1.948,4.206-4.616,4.615c-0.29,0-0.579,0-0.868,0c-2.668-0.409-4.207-1.947-4.616-4.615
					c0-0.29,0-0.579,0-0.868C338.004,421.849,339.543,420.31,342.211,419.9z M340.673,421.38c-0.463,0.261-0.814,0.545-1.125,0.907
					c-0.609,0.711-1.096,1.676-0.967,3.077c0.108,1.176,0.649,2.046,1.381,2.684c0.744,0.647,1.832,1.068,3.078,0.966
					c1.2-0.099,2.054-0.655,2.683-1.381c0.636-0.732,1.11-1.734,1.006-3.076c-0.094-1.2-0.713-2.092-1.381-2.684
					c-0.694-0.615-1.771-1.095-3.097-0.986C341.643,420.937,341.112,421.132,340.673,421.38z"/>
				<path fill-rule="evenodd" clip-rule="evenodd" fill="#FFFFFF" d="M343.079,419.9c1.539,0,3.077,0,4.616,0
					c0,1.539,0,3.077,0,4.616C347.286,421.849,345.747,420.31,343.079,419.9z"/>
				<path fill-rule="evenodd" clip-rule="evenodd" fill="#FFFFFF" d="M342.251,420.887c1.326-0.108,2.402,0.371,3.097,0.986
					c0.668,0.592,1.287,1.483,1.381,2.684c0.104,1.342-0.37,2.344-1.006,3.076c-0.629,0.726-1.482,1.282-2.683,1.381
					c-1.246,0.103-2.334-0.318-3.078-0.966c-0.731-0.638-1.272-1.508-1.381-2.684c-0.129-1.401,0.357-2.366,0.967-3.077
					c0.311-0.362,0.662-0.646,1.125-0.907C341.112,421.132,341.643,420.937,342.251,420.887z M342.329,422.109
					c-1.357,0.116-2.423,1.219-2.525,2.564c-0.128,1.69,1.049,3.003,2.565,3.117c0.88,0.067,1.476-0.212,2.052-0.611
					c-0.153-0.294-0.39-0.505-0.553-0.789c-0.327,0.183-0.595,0.395-1.025,0.435c-1.19,0.109-2.003-0.721-2.071-1.677
					c-0.096-1.328,0.879-2.173,2.091-2.071c0.503,0.041,0.776,0.262,1.124,0.551c0.219-0.248,0.473-0.461,0.69-0.709
					C344.104,422.433,343.439,422.015,342.329,422.109z"/>
				<path fill-rule="evenodd" clip-rule="evenodd" d="M344.677,422.919c-0.218,0.248-0.472,0.461-0.69,0.709
					c-0.348-0.289-0.621-0.51-1.124-0.551c-1.212-0.102-2.187,0.743-2.091,2.071c0.068,0.956,0.881,1.786,2.071,1.677
					c0.431-0.04,0.698-0.252,1.025-0.435c0.163,0.284,0.399,0.495,0.553,0.789c-0.576,0.399-1.172,0.679-2.052,0.611
					c-1.517-0.114-2.693-1.427-2.565-3.117c0.103-1.346,1.168-2.448,2.525-2.564C343.439,422.015,344.104,422.433,344.677,422.919z"
					/>
				<path fill-rule="evenodd" clip-rule="evenodd" fill="#FFFFFF" d="M337.595,425.385c0.409,2.668,1.948,4.206,4.616,4.615
					c-1.538,0-3.077,0-4.616,0C337.595,428.462,337.595,426.924,337.595,425.385z"/>
				<path fill-rule="evenodd" clip-rule="evenodd" fill="#FFFFFF" d="M347.695,425.385c0,1.539,0,3.077,0,4.615
					c-1.539,0-3.077,0-4.616,0C345.747,429.591,347.286,428.053,347.695,425.385z"/>
			</g>
		</g>
		<text transform="matrix(1 0 0 1 261.75 397.7402)" font-family="'Roboto-Light'" font-size="30">π</text>
	</g>
</g>
</svg>
