<?xml version="1.0" encoding="utf-8"?>
<!-- Generator: Adobe Illustrator 15.1.0, SVG Export Plug-In . SVG Version: 6.00 Build 0)  -->
<!DOCTYPE svg PUBLIC "-//W3C//DTD SVG 1.1//EN" "http://www.w3.org/Graphics/SVG/1.1/DTD/svg11.dtd">
<svg version="1.1" id="Layer_1" xmlns="http://www.w3.org/2000/svg" xmlns:xlink="http://www.w3.org/1999/xlink" x="0px" y="0px"
	 width="360px" height="432px" viewBox="0 0 360 432" enable-background="new 0 0 360 432" xml:space="preserve">
<g>
	<g>
		<text transform="matrix(1 0 0 1 275.4736 427.0273)" font-family="'ArialMT'" font-size="10.9902">w3resource.com</text>
		<g>
			<path fill-rule="evenodd" clip-rule="evenodd" fill="#FFFFFF" d="M269.2,418.9c-2.668,0.409-4.207,1.948-4.616,4.616
				c0-1.539,0-3.077,0-4.616C266.123,418.9,267.662,418.9,269.2,418.9z"/>
			<path fill-rule="evenodd" clip-rule="evenodd" d="M269.2,418.9c0.289,0,0.578,0,0.868,0c2.668,0.409,4.207,1.948,4.616,4.616
				c0,0.289,0,0.578,0,0.868c-0.409,2.668-1.948,4.206-4.616,4.615c-0.29,0-0.579,0-0.868,0c-2.668-0.409-4.207-1.947-4.616-4.615
				c0-0.29,0-0.579,0-0.868C264.993,420.849,266.532,419.31,269.2,418.9z M267.662,420.38c-0.463,0.261-0.814,0.545-1.125,0.907
				c-0.609,0.711-1.096,1.676-0.967,3.077c0.108,1.176,0.649,2.046,1.381,2.684c0.744,0.647,1.832,1.068,3.078,0.966
				c1.2-0.099,2.054-0.655,2.683-1.381c0.636-0.732,1.11-1.734,1.006-3.076c-0.094-1.2-0.713-2.092-1.381-2.684
				c-0.694-0.615-1.771-1.095-3.097-0.986C268.632,419.937,268.102,420.132,267.662,420.38z"/>
			<path fill-rule="evenodd" clip-rule="evenodd" fill="#FFFFFF" d="M270.068,418.9c1.539,0,3.077,0,4.616,0
				c0,1.539,0,3.077,0,4.616C274.275,420.849,272.736,419.31,270.068,418.9z"/>
			<path fill-rule="evenodd" clip-rule="evenodd" fill="#FFFFFF" d="M269.24,419.887c1.326-0.108,2.402,0.371,3.097,0.986
				c0.668,0.592,1.287,1.483,1.381,2.684c0.104,1.342-0.37,2.344-1.006,3.076c-0.629,0.726-1.482,1.282-2.683,1.381
				c-1.246,0.103-2.334-0.318-3.078-0.966c-0.731-0.638-1.272-1.508-1.381-2.684c-0.129-1.401,0.357-2.366,0.967-3.077
				c0.311-0.362,0.662-0.646,1.125-0.907C268.102,420.132,268.632,419.937,269.24,419.887z M269.318,421.109
				c-1.357,0.116-2.423,1.219-2.525,2.564c-0.128,1.69,1.049,3.003,2.565,3.117c0.88,0.067,1.476-0.212,2.052-0.611
				c-0.153-0.294-0.39-0.505-0.553-0.789c-0.327,0.183-0.595,0.395-1.025,0.435c-1.19,0.109-2.003-0.721-2.071-1.677
				c-0.096-1.328,0.879-2.173,2.091-2.071c0.503,0.041,0.776,0.262,1.124,0.551c0.219-0.248,0.473-0.461,0.69-0.709
				C271.094,421.433,270.429,421.015,269.318,421.109z"/>
			<path fill-rule="evenodd" clip-rule="evenodd" d="M271.666,421.919c-0.218,0.248-0.472,0.461-0.69,0.709
				c-0.348-0.289-0.621-0.51-1.124-0.551c-1.212-0.102-2.187,0.743-2.091,2.071c0.068,0.956,0.881,1.786,2.071,1.677
				c0.431-0.04,0.698-0.252,1.025-0.435c0.163,0.284,0.399,0.495,0.553,0.789c-0.576,0.399-1.172,0.679-2.052,0.611
				c-1.517-0.114-2.693-1.427-2.565-3.117c0.103-1.346,1.168-2.448,2.525-2.564C270.429,421.015,271.094,421.433,271.666,421.919z"
				/>
			<path fill-rule="evenodd" clip-rule="evenodd" fill="#FFFFFF" d="M264.584,424.385c0.409,2.668,1.948,4.206,4.616,4.615
				c-1.538,0-3.077,0-4.616,0C264.584,427.462,264.584,425.924,264.584,424.385z"/>
			<path fill-rule="evenodd" clip-rule="evenodd" fill="#FFFFFF" d="M274.685,424.385c0,1.539,0,3.077,0,4.615
				c-1.539,0-3.077,0-4.616,0C272.736,428.591,274.275,427.053,274.685,424.385z"/>
		</g>
	</g>
	<g>
		
			<ellipse transform="matrix(0.8662 0.4997 -0.4997 0.8662 217.9234 -63.3854)" fill="none" stroke="#000000" stroke-miterlimit="10" cx="227.333" cy="375.276" rx="3.712" ry="8.075"/>
		<line fill="none" stroke="#000000" stroke-miterlimit="10" x1="230.103" y1="377.904" x2="223.398" y2="374.01"/>
	</g>
	<text transform="matrix(1 0 0 1 203.6426 382.5059)" font-family="'Roboto-Light'" font-size="28.9378">r</text>
	
		<line fill="none" stroke="#191919" stroke-width="2" stroke-miterlimit="10" x1="175.031" y1="375.465" x2="200.667" y2="375.665"/>
	<text transform="matrix(1 0 0 1 158.5283 382.5059)" font-family="'Roboto-Light'" font-size="21">=</text>
	<text transform="matrix(1 0 0 1 215.0283 370.5137)" font-family="'Roboto-Light'" font-size="12">2</text>
	<text transform="matrix(1 0 0 1 240 379.998)" fill="#0C9CAF" font-family="'Roboto-Light'" font-size="12">( in radians )</text>
	<text transform="matrix(1 0 0 1 183 370.5137)" font-family="'Roboto-Light'" font-size="12">1</text>
	<text transform="matrix(1 0 0 1 183 388.5137)" font-family="'Roboto-Light'" font-size="12">2</text>
	<g>
		
			<ellipse transform="matrix(0.8662 0.4997 -0.4997 0.8662 178.0327 -56.3949)" fill="none" stroke="#000000" stroke-miterlimit="10" cx="194.333" cy="304.276" rx="3.712" ry="8.075"/>
		<line fill="none" stroke="#000000" stroke-miterlimit="10" x1="197.103" y1="306.904" x2="190.398" y2="303.01"/>
	</g>
	<text transform="matrix(1 0 0 1 30.3213 323.5059)"><tspan x="0" y="0" fill="#FF6400" font-family="'Roboto-Thin'" font-size="21">Area of sector</tspan><tspan x="126.359" y="0" font-family="'Roboto-Thin'" font-size="21"> </tspan></text>
	<text transform="matrix(1 0 0 1 254.6426 323.5059)" font-family="'Roboto-Light'" font-size="30">r</text>
	
		<line fill="none" stroke="#191919" stroke-width="2" stroke-miterlimit="10" x1="175.031" y1="316.465" x2="213.013" y2="316.665"/>
	<text transform="matrix(1 0 0 1 179.5654 332.7402)" font-family="'Roboto-Light'" font-size="14.4689">360</text>
	<text transform="matrix(1 0 0 1 158.5283 323.5059)" font-family="'Roboto-Light'" font-size="21">=</text>
	<text transform="matrix(1 0 0 1 266.0283 311.5137)" font-family="'Roboto-Light'" font-size="12">2</text>
	<text transform="matrix(1 0 0 1 277 318.998)" fill="#BF3600" font-family="'Roboto-Light'" font-size="12">( in degrees )</text>
	<text transform="matrix(1 0 0 1 30.3213 382.5059)"><tspan x="0" y="0" fill="#0C9CAF" font-family="'Roboto-Thin'" font-size="21">Area of sector</tspan><tspan x="126.359" y="0" font-family="'Roboto-Thin'" font-size="21"> </tspan></text>
	<g>
		<g>
			
				<ellipse fill="none" stroke="#222BBF" stroke-width="2" stroke-miterlimit="10" stroke-dasharray="6.9434,6.9434" cx="175.289" cy="144.586" rx="117.084" ry="117.185"/>
		</g>
		
			<text transform="matrix(1 0 0 1 232.5176 166.2227)" fill="#2C5BC4" font-family="'Roboto-Regular'" font-size="29.9349" letter-spacing="2">r</text>
		<g>
			
				<ellipse fill="none" stroke="#000000" stroke-width="0.5" stroke-miterlimit="10" cx="213.948" cy="118.695" rx="2.481" ry="5.398"/>
			
				<line fill="none" stroke="#000000" stroke-width="0.25" stroke-miterlimit="10" x1="216.429" y1="119.293" x2="211.248" y2="119.277"/>
		</g>
		<path fill="none" stroke="#FF6400" stroke-width="3" stroke-miterlimit="10" d="M232.764,42.472"/>
		<path fill="none" stroke="#FF6400" stroke-width="3" stroke-miterlimit="10" d="M225.241,38.579"/>
		<path fill="#FFD5C0" stroke="#F97408" stroke-width="3" stroke-miterlimit="10" d="M227.817,39.086l-52.528,104.75l117.063,1.809
			C292.353,145.645,300.415,82.222,227.817,39.086z"/>
		<path fill="#E7D7FF" stroke="#5E249F" stroke-width="2" stroke-miterlimit="10" d="M191.93,109.75c0,0,23.25,9.287,22.267,34.824
			l-39.289-0.589L191.93,109.75z"/>
		<g>
			
				<ellipse transform="matrix(0.8662 0.4996 -0.4996 0.8662 84.367 -93.5859)" fill="none" stroke="#000000" stroke-miterlimit="10" cx="216.96" cy="110.767" rx="3.46" ry="7.528"/>
			<line fill="none" stroke="#000000" stroke-miterlimit="10" x1="219.542" y1="113.217" x2="213.292" y2="109.587"/>
		</g>
	</g>
	<text transform="matrix(1 0 0 1 233.75 323.7402)" font-family="'Roboto-Light'" font-size="30">π</text>
	<g>
		<line fill="none" stroke="#000000" stroke-width="2" stroke-miterlimit="10" x1="228.994" y1="310.5" x2="218.248" y2="321.25"/>
		<line fill="none" stroke="#000000" stroke-width="2" stroke-miterlimit="10" x1="228.994" y1="321.25" x2="218.248" y2="310.5"/>
	</g>
</g>
</svg>
